<mxfile host="app.diagrams.net" modified="2023-11-16T07:26:09.573Z" agent="Mozilla/5.0 (Windows NT 10.0; Win64; x64) AppleWebKit/537.36 (KHTML, like Gecko) Chrome/119.0.0.0 Safari/537.36" etag="Ucchpcuk_G7xVOnloykE" version="22.1.2" type="device">
  <diagram name="Page-1" id="yFwqyPOleZDTz5NaHMES">
    <mxGraphModel dx="1655" dy="1090" grid="1" gridSize="10" guides="1" tooltips="1" connect="1" arrows="1" fold="1" page="1" pageScale="1" pageWidth="850" pageHeight="1100" math="0" shadow="0">
      <root>
        <mxCell id="0" />
        <mxCell id="1" parent="0" />
        <mxCell id="Sw_JrgQwhOfy5IWIucwl-38" style="edgeStyle=orthogonalEdgeStyle;rounded=0;orthogonalLoop=1;jettySize=auto;html=1;" parent="1" source="Sw_JrgQwhOfy5IWIucwl-1" target="Sw_JrgQwhOfy5IWIucwl-6" edge="1">
          <mxGeometry relative="1" as="geometry" />
        </mxCell>
        <mxCell id="Sw_JrgQwhOfy5IWIucwl-1" value="&lt;b&gt;start&lt;/b&gt;" style="rounded=1;whiteSpace=wrap;html=1;" parent="1" vertex="1">
          <mxGeometry x="170" y="100" width="120" height="60" as="geometry" />
        </mxCell>
        <mxCell id="Sw_JrgQwhOfy5IWIucwl-11" style="edgeStyle=orthogonalEdgeStyle;rounded=0;orthogonalLoop=1;jettySize=auto;html=1;exitX=0.5;exitY=1;exitDx=0;exitDy=0;" parent="1" source="Sw_JrgQwhOfy5IWIucwl-4" target="Sw_JrgQwhOfy5IWIucwl-9" edge="1">
          <mxGeometry relative="1" as="geometry" />
        </mxCell>
        <mxCell id="Sw_JrgQwhOfy5IWIucwl-14" style="edgeStyle=orthogonalEdgeStyle;rounded=0;orthogonalLoop=1;jettySize=auto;html=1;exitX=0.5;exitY=1;exitDx=0;exitDy=0;" parent="1" source="Sw_JrgQwhOfy5IWIucwl-4" target="Sw_JrgQwhOfy5IWIucwl-12" edge="1">
          <mxGeometry relative="1" as="geometry" />
        </mxCell>
        <mxCell id="Sw_JrgQwhOfy5IWIucwl-4" value="Is the guess correct?" style="rhombus;whiteSpace=wrap;html=1;" parent="1" vertex="1">
          <mxGeometry x="145" y="420" width="170" height="60" as="geometry" />
        </mxCell>
        <mxCell id="Sw_JrgQwhOfy5IWIucwl-37" style="edgeStyle=orthogonalEdgeStyle;rounded=0;orthogonalLoop=1;jettySize=auto;html=1;entryX=0.5;entryY=0;entryDx=0;entryDy=0;" parent="1" source="Sw_JrgQwhOfy5IWIucwl-6" target="Sw_JrgQwhOfy5IWIucwl-4" edge="1">
          <mxGeometry relative="1" as="geometry" />
        </mxCell>
        <mxCell id="Sw_JrgQwhOfy5IWIucwl-6" value="&lt;b style=&quot;border-color: var(--border-color);&quot;&gt;Guess the alphabet&lt;/b&gt;" style="rounded=1;whiteSpace=wrap;html=1;" parent="1" vertex="1">
          <mxGeometry x="170" y="300" width="120" height="60" as="geometry" />
        </mxCell>
        <mxCell id="Sw_JrgQwhOfy5IWIucwl-21" style="edgeStyle=orthogonalEdgeStyle;rounded=0;orthogonalLoop=1;jettySize=auto;html=1;" parent="1" source="Sw_JrgQwhOfy5IWIucwl-9" target="Sw_JrgQwhOfy5IWIucwl-20" edge="1">
          <mxGeometry relative="1" as="geometry" />
        </mxCell>
        <mxCell id="Sw_JrgQwhOfy5IWIucwl-9" value="draw the hangman" style="rounded=1;whiteSpace=wrap;html=1;" parent="1" vertex="1">
          <mxGeometry x="70" y="550" width="120" height="50" as="geometry" />
        </mxCell>
        <mxCell id="Sw_JrgQwhOfy5IWIucwl-28" style="edgeStyle=orthogonalEdgeStyle;rounded=0;orthogonalLoop=1;jettySize=auto;html=1;exitX=0.5;exitY=1;exitDx=0;exitDy=0;" parent="1" source="Sw_JrgQwhOfy5IWIucwl-12" target="Sw_JrgQwhOfy5IWIucwl-27" edge="1">
          <mxGeometry relative="1" as="geometry" />
        </mxCell>
        <mxCell id="Sw_JrgQwhOfy5IWIucwl-12" value="show the alphabet&lt;br&gt;at its position" style="rounded=1;whiteSpace=wrap;html=1;" parent="1" vertex="1">
          <mxGeometry x="270" y="550" width="120" height="50" as="geometry" />
        </mxCell>
        <mxCell id="Sw_JrgQwhOfy5IWIucwl-15" value="Correct" style="text;html=1;strokeColor=none;fillColor=none;align=center;verticalAlign=middle;whiteSpace=wrap;rounded=0;" parent="1" vertex="1">
          <mxGeometry x="280" y="480" width="60" height="30" as="geometry" />
        </mxCell>
        <mxCell id="Sw_JrgQwhOfy5IWIucwl-16" value="Wrong" style="text;html=1;strokeColor=none;fillColor=none;align=center;verticalAlign=middle;whiteSpace=wrap;rounded=0;" parent="1" vertex="1">
          <mxGeometry x="130" y="480" width="60" height="30" as="geometry" />
        </mxCell>
        <mxCell id="Sw_JrgQwhOfy5IWIucwl-17" value="back to guess" style="rounded=1;whiteSpace=wrap;html=1;" parent="1" vertex="1">
          <mxGeometry x="180" y="870" width="120" height="60" as="geometry" />
        </mxCell>
        <mxCell id="Sw_JrgQwhOfy5IWIucwl-22" style="edgeStyle=orthogonalEdgeStyle;rounded=0;orthogonalLoop=1;jettySize=auto;html=1;exitX=0;exitY=0.5;exitDx=0;exitDy=0;" parent="1" source="Sw_JrgQwhOfy5IWIucwl-20" edge="1">
          <mxGeometry relative="1" as="geometry">
            <mxPoint x="30" y="780" as="targetPoint" />
          </mxGeometry>
        </mxCell>
        <mxCell id="Sw_JrgQwhOfy5IWIucwl-30" style="edgeStyle=orthogonalEdgeStyle;rounded=0;orthogonalLoop=1;jettySize=auto;html=1;exitX=0.5;exitY=1;exitDx=0;exitDy=0;" parent="1" source="Sw_JrgQwhOfy5IWIucwl-20" target="Sw_JrgQwhOfy5IWIucwl-17" edge="1">
          <mxGeometry relative="1" as="geometry">
            <Array as="points">
              <mxPoint x="130" y="790" />
              <mxPoint x="240" y="790" />
            </Array>
          </mxGeometry>
        </mxCell>
        <mxCell id="Sw_JrgQwhOfy5IWIucwl-20" value="is hangman fully draw?" style="rhombus;whiteSpace=wrap;html=1;" parent="1" vertex="1">
          <mxGeometry x="50" y="640" width="160" height="80" as="geometry" />
        </mxCell>
        <mxCell id="Sw_JrgQwhOfy5IWIucwl-24" value="No" style="text;html=1;strokeColor=none;fillColor=none;align=center;verticalAlign=middle;whiteSpace=wrap;rounded=0;" parent="1" vertex="1">
          <mxGeometry x="210" y="760" width="60" height="30" as="geometry" />
        </mxCell>
        <mxCell id="Sw_JrgQwhOfy5IWIucwl-25" value="Yes" style="text;html=1;strokeColor=none;fillColor=none;align=center;verticalAlign=middle;whiteSpace=wrap;rounded=0;" parent="1" vertex="1">
          <mxGeometry x="40" y="730" width="60" height="30" as="geometry" />
        </mxCell>
        <mxCell id="Sw_JrgQwhOfy5IWIucwl-26" value="Game Over" style="rounded=1;whiteSpace=wrap;html=1;" parent="1" vertex="1">
          <mxGeometry x="-30" y="790" width="120" height="60" as="geometry" />
        </mxCell>
        <mxCell id="Sw_JrgQwhOfy5IWIucwl-33" style="edgeStyle=orthogonalEdgeStyle;rounded=0;orthogonalLoop=1;jettySize=auto;html=1;exitX=0.5;exitY=1;exitDx=0;exitDy=0;" parent="1" source="Sw_JrgQwhOfy5IWIucwl-27" target="Sw_JrgQwhOfy5IWIucwl-17" edge="1">
          <mxGeometry relative="1" as="geometry">
            <Array as="points">
              <mxPoint x="330" y="790" />
              <mxPoint x="240" y="790" />
            </Array>
          </mxGeometry>
        </mxCell>
        <mxCell id="Sw_JrgQwhOfy5IWIucwl-35" style="edgeStyle=orthogonalEdgeStyle;rounded=0;orthogonalLoop=1;jettySize=auto;html=1;exitX=1;exitY=0.5;exitDx=0;exitDy=0;" parent="1" source="Sw_JrgQwhOfy5IWIucwl-27" target="Sw_JrgQwhOfy5IWIucwl-34" edge="1">
          <mxGeometry relative="1" as="geometry" />
        </mxCell>
        <mxCell id="Sw_JrgQwhOfy5IWIucwl-27" value="Complete the words?" style="rhombus;whiteSpace=wrap;html=1;" parent="1" vertex="1">
          <mxGeometry x="250" y="650" width="160" height="80" as="geometry" />
        </mxCell>
        <mxCell id="Sw_JrgQwhOfy5IWIucwl-34" value="Win" style="rounded=1;whiteSpace=wrap;html=1;" parent="1" vertex="1">
          <mxGeometry x="390" y="780" width="120" height="60" as="geometry" />
        </mxCell>
        <mxCell id="Sw_JrgQwhOfy5IWIucwl-36" value="Yes" style="text;html=1;strokeColor=none;fillColor=none;align=center;verticalAlign=middle;whiteSpace=wrap;rounded=0;" parent="1" vertex="1">
          <mxGeometry x="460" y="720" width="60" height="30" as="geometry" />
        </mxCell>
      </root>
    </mxGraphModel>
  </diagram>
</mxfile>
